<?xml version="1.0" standalone="no"?>
<!DOCTYPE svg PUBLIC "-//W3C//DTD SVG 20010904//EN"
 "http://www.w3.org/TR/2001/REC-SVG-20010904/DTD/svg10.dtd">
<svg version="1.0" xmlns="http://www.w3.org/2000/svg"
 width="1085.000000pt" height="1280.000000pt" viewBox="0 0 1085.000000 1280.000000"
 preserveAspectRatio="xMidYMid meet">
<metadata>
Created by potrace 1.15, written by Peter Selinger 2001-2017
</metadata>
<g transform="translate(0.000000,1280.000000) scale(0.100000,-0.100000)"
fill="#000000" stroke="none">
<path d="M2020 12794 c-292 -35 -532 -121 -731 -263 -315 -225 -549 -568 -709
-1038 -21 -62 -37 -113 -34 -113 2 0 30 13 62 29 142 71 377 141 582 173 56 8
178 13 355 12 296 0 404 -13 645 -74 815 -207 1564 -773 2268 -1714 45 -60 82
-103 82 -95 0 31 -33 201 -62 319 -57 238 -182 589 -302 853 -14 31 -24 57
-22 57 2 0 40 -7 83 -15 98 -19 184 -19 227 -1 43 18 79 77 79 130 0 68 -37
122 -177 261 -541 537 -1205 889 -1913 1014 -111 20 -260 39 -348 44 -27 2 38
4 145 5 544 5 1206 -115 1725 -312 79 -30 79 -31 -30 51 -472 353 -980 581
-1470 659 -89 14 -388 26 -455 18z"/>
<path d="M8525 12794 c-16 -2 -70 -9 -120 -15 -401 -49 -881 -243 -1315 -532
-91 -61 -245 -172 -275 -199 -5 -4 29 6 75 23 523 196 1167 311 1710 307 169
-1 183 -2 100 -8 -800 -62 -1599 -442 -2216 -1055 -140 -139 -177 -193 -177
-261 0 -53 36 -112 79 -130 43 -18 129 -18 227 1 43 8 81 15 83 15 2 0 -8 -26
-22 -57 -120 -264 -245 -615 -302 -853 -29 -118 -62 -288 -62 -319 0 -8 37 35
82 95 738 987 1544 1574 2393 1743 207 41 265 46 540 46 211 -1 292 -5 370
-18 204 -36 410 -99 547 -168 32 -16 60 -29 62 -29 6 0 -64 206 -99 290 -187
453 -467 785 -812 963 -110 57 -298 120 -423 142 -90 15 -380 28 -445 19z"/>
<path d="M2325 10319 c-228 -23 -429 -71 -550 -132 -120 -60 -244 -177 -428
-402 -181 -222 -303 -342 -392 -386 -62 -30 -79 -34 -150 -34 -108 0 -172 30
-264 122 -80 80 -142 171 -240 348 -39 72 -71 125 -71 119 0 -7 25 -72 55
-145 82 -197 159 -327 307 -513 16 -21 14 -23 -134 -121 -132 -88 -328 -252
-328 -275 0 -4 49 25 108 64 207 137 382 210 489 204 l56 -3 -129 -74 c-169
-96 -274 -167 -389 -263 -90 -75 -210 -210 -242 -273 -13 -26 -8 -23 38 21
220 208 469 369 668 433 132 43 215 54 370 49 165 -5 188 -12 393 -115 271
-135 564 -192 996 -193 l202 0 0 130 0 130 -34 0 c-175 0 -596 46 -811 89
-152 31 -303 90 -415 162 -76 49 -80 66 -41 160 105 251 310 478 536 592 168
85 346 125 600 136 l160 6 0 85 0 85 -140 1 c-77 1 -176 -2 -220 -7z"/>
<path d="M8164 10317 c-3 -8 -4 -47 -2 -88 l3 -74 160 -6 c254 -11 432 -51
600 -136 226 -114 431 -341 536 -592 39 -94 35 -111 -41 -160 -112 -72 -263
-131 -415 -162 -215 -43 -636 -89 -811 -89 l-34 0 0 -130 0 -130 203 0 c431 1
724 58 995 193 205 103 228 110 393 115 155 5 238 -6 370 -49 199 -64 448
-225 668 -433 46 -44 51 -47 38 -21 -32 63 -152 198 -242 273 -115 96 -220
167 -389 263 l-129 74 56 3 c107 6 282 -67 489 -204 59 -39 108 -68 108 -64 0
23 -196 187 -328 275 -148 98 -150 100 -134 121 148 186 225 316 307 513 30
73 55 138 55 145 0 6 -32 -47 -71 -119 -98 -177 -160 -268 -240 -348 -92 -92
-156 -122 -264 -122 -71 0 -88 4 -150 34 -89 44 -211 164 -392 386 -184 225
-308 342 -428 402 -85 43 -252 91 -390 112 -210 32 -511 43 -521 18z"/>
<path d="M2880 10217 l0 -84 108 -22 c294 -62 637 -213 830 -367 72 -56 178
-172 167 -182 -2 -2 -30 14 -62 35 -260 175 -566 313 -805 363 -377 79 -832
16 -1203 -165 -145 -71 -234 -134 -342 -242 -62 -61 -73 -77 -73 -106 0 -22 8
-43 23 -59 107 -115 511 -211 1042 -249 131 -9 208 -8 420 5 457 29 645 66
960 191 40 16 -71 -87 -141 -131 -166 -104 -423 -163 -778 -180 l-146 -7 0
-133 0 -133 53 5 c636 63 1169 290 1292 551 48 100 32 247 -41 370 -128 219
-464 415 -931 543 -125 34 -333 80 -364 80 -5 0 -9 -37 -9 -83z"/>
<path d="M7825 10276 c-582 -122 -1009 -343 -1160 -601 -72 -121 -88 -273 -40
-370 127 -261 657 -486 1293 -549 l52 -5 0 133 0 133 -146 7 c-355 17 -612 76
-778 180 -70 44 -181 147 -141 131 315 -125 503 -162 960 -191 212 -13 289
-14 420 -5 634 45 1065 169 1065 308 0 29 -11 45 -72 106 -109 108 -198 171
-343 242 -371 181 -826 244 -1203 165 -239 -50 -545 -188 -805 -363 -32 -21
-60 -37 -62 -35 -11 10 95 126 165 181 196 155 535 305 833 368 l107 22 0 84
c0 97 13 92 -145 59z"/>
<path d="M4733 9984 c11 -20 -13 -514 -34 -698 -63 -562 -202 -992 -457 -1418
-97 -163 -201 -308 -383 -535 -248 -310 -309 -430 -309 -610 0 -108 12 -171
51 -267 27 -67 119 -229 126 -222 2 2 -6 27 -17 57 -39 99 -60 208 -60 320 0
132 15 184 81 280 69 100 626 654 691 689 l48 25 20 -21 c19 -19 21 -33 21
-135 0 -63 -10 -195 -21 -294 -40 -345 -37 -585 9 -747 50 -175 158 -289 366
-389 154 -73 285 -109 435 -117 296 -17 475 15 695 123 367 181 445 423 365
1130 -12 99 -21 231 -21 294 -1 103 1 116 20 135 l21 21 48 -25 c65 -35 622
-589 691 -689 66 -96 81 -148 81 -282 0 -108 -25 -238 -64 -331 -26 -62 -18
-57 29 17 52 81 102 196 121 275 8 30 14 98 14 150 0 182 -61 304 -304 606
-296 367 -454 618 -590 938 -177 413 -261 842 -286 1458 -6 138 -12 253 -14
255 -4 5 -34 -208 -51 -367 -36 -346 -45 -925 -25 -1600 15 -504 36 -753 96
-1130 45 -287 42 -441 -9 -534 -46 -82 -237 -179 -432 -218 -141 -29 -392 -29
-525 -1 -192 41 -382 139 -427 219 -53 96 -54 242 -4 564 56 362 76 608 91
1110 13 436 13 974 0 1231 -16 326 -60 712 -83 734 -7 7 -8 6 -4 -1z"/>
<path d="M3110 6978 c-367 -256 -753 -429 -1132 -508 -234 -48 -311 -55 -618
-55 -292 0 -296 0 -405 28 -217 56 -380 153 -564 334 l-114 113 7 -43 c9 -60
90 -357 142 -522 142 -448 433 -1056 764 -1595 358 -581 778 -1140 1354 -1800
237 -271 581 -646 562 -612 -4 7 -116 169 -249 360 -436 630 -660 974 -867
1337 -92 161 -220 406 -220 422 0 4 15 -7 32 -24 53 -48 283 -232 409 -326
245 -181 463 -293 733 -377 102 -31 407 -102 414 -96 2 2 -27 14 -65 26 -37
13 -131 47 -208 78 -532 208 -977 508 -1312 883 -225 252 -376 482 -530 808
-124 263 -393 886 -393 911 0 12 161 -34 199 -56 29 -17 78 -80 111 -144 7
-14 103 -164 213 -335 573 -888 708 -1071 899 -1216 112 -86 164 -107 289
-119 57 -5 544 -11 1081 -13 l978 -4 107 146 c60 80 185 245 279 366 296 381
295 380 419 380 124 0 123 1 419 -380 94 -121 219 -286 279 -366 l107 -146
978 4 c537 2 1024 8 1081 13 125 12 177 33 289 119 191 145 326 328 899 1216
110 171 206 321 213 335 33 64 82 127 111 144 38 22 199 68 199 56 0 -26 -276
-665 -398 -920 -234 -491 -522 -857 -917 -1165 -311 -243 -730 -464 -1128
-595 -38 -12 -67 -24 -65 -26 7 -6 312 65 414 96 276 85 510 208 769 403 106
80 332 262 373 300 17 17 32 28 32 24 0 -16 -128 -261 -220 -422 -208 -364
-419 -689 -857 -1321 -137 -199 -254 -368 -258 -375 -20 -35 321 337 561 611
990 1134 1609 2089 2013 3105 87 217 227 677 246 809 l7 45 -113 -112 c-214
-211 -412 -315 -681 -357 -88 -13 -456 -14 -583 0 -538 59 -985 230 -1455 558
-125 88 -118 87 -187 27 -192 -165 82 -398 682 -580 337 -102 595 -153 932
-183 l82 -7 -62 -80 c-132 -171 -650 -816 -740 -921 -124 -145 -144 -160 -237
-175 -160 -25 -771 4 -1091 51 -172 26 -238 43 -316 81 -91 44 -153 106 -352
353 -99 121 -199 240 -224 264 l-44 43 -149 -50 c-177 -59 -319 -88 -497 -100
-236 -17 -440 12 -714 100 l-156 51 -44 -44 c-25 -24 -125 -143 -224 -264
-244 -303 -298 -349 -458 -393 -180 -50 -565 -89 -961 -98 -304 -6 -394 2
-448 44 -18 14 -77 75 -129 137 -91 106 -610 751 -741 921 l-61 80 82 7 c364
33 666 95 1022 213 290 95 459 181 571 290 103 100 110 184 21 260 -69 60 -62
61 -187 -27z"/>
<path d="M4111 6230 c-18 -4 -37 -14 -42 -22 -33 -51 38 -155 142 -209 56 -28
220 -69 278 -69 56 0 71 12 71 58 0 101 -125 201 -297 237 -75 16 -101 17
-152 5z"/>
<path d="M6582 6225 c-125 -28 -225 -88 -267 -160 -27 -45 -33 -103 -13 -123
30 -30 249 10 349 65 60 32 125 102 134 143 8 36 -1 66 -21 74 -36 14 -123 14
-182 1z"/>
<path d="M3996 4339 c-79 -62 11 -109 284 -149 237 -34 509 -45 1175 -45 762
0 1039 17 1300 82 125 31 157 67 99 112 l-27 21 -1402 0 -1402 0 -27 -21z"/>
<path d="M4741 3283 c8 -10 52 -62 98 -118 245 -293 269 -410 160 -798 -69
-248 -74 -284 -73 -562 1 -311 14 -433 104 -974 75 -446 102 -565 156 -677 55
-116 114 -154 239 -154 125 0 184 38 239 154 54 112 81 231 156 677 90 537
103 662 104 974 1 278 -4 314 -73 562 -107 383 -86 498 142 774 50 61 100 122
110 135 l19 24 -697 0 c-657 0 -697 -1 -684 -17z"/>
</g>
</svg>
